{"title":"Amalia (2008) - Portuguese Film","uid":6875482,"size":1469104128,"categoryP":"video","categoryS":"movies","magnet":"?xt=urn:btih:93f117060521670dc8f6a9e519b5e5e67d016ae0&amp;dn=Amalia+%282008%29+-+Portuguese+Film&amp;tr=udp%3A%2F%2Ftracker.openbittorrent.com%3A80&amp;tr=udp%3A%2F%2Fopen.demonii.com%3A1337&amp;tr=udp%3A%2F%2Ftracker.coppersurfer.tk%3A6969&amp;tr=udp%3A%2F%2Fexodus.desync.com%3A6969","seeders":1,"leechers":0,"uploader":"mariopan","files":1,"time":1323398472,"description":"Biopic of AmÃƒÂ¡lia Rodrigues, the most famous portuguese singer.\n\nDirector:\nCarlos Coelho da Silva\n\nWriters:\nPedro Marta Santos (screenwriter), JoÃƒÂ£o Tordo\n\nStars:\nSandra Barata Belo, Carla Chambel and Ricardo CarriÃƒÂ§o\n\nFormat                           : AVI\nFormat/Info                      : Audio Video Interleave\nFile size                        : 1.37 GiB\nDuration                         : 1h 57mn\nOverall bit rate                 : 1 666 Kbps\nWriting application              : VirtualDubMod 1.5.4.1 (build 2178/release)\nWriting library                  : VirtualDubMod build 2178/release\n\nVideo\nID                               : 0\nFormat                           : MPEG-4 Visual\nFormat profile                   : Advanced Simple@L5\nFormat settings, BVOP            : Yes\nFormat settings, QPel            : No\nFormat settings, GMC             : No warppoints\nFormat settings, Matrix          : Custom\nCodec ID                         : XVID\nCodec ID/Hint                    : XviD\nDuration                         : 1h 57mn\nBit rate                         : 1 211 Kbps\nWidth                            : 672 pixels\nHeight                           : 368 pixels\nDisplay aspect ratio             : 16:9\nFrame rate                       : 25.000 fps\nColor space                      : YUV\nChroma subsampling               : 4:2:0\nBit depth                        : 8 bits\nScan type                        : Progressive\nBits/(Pixel*Frame)               : 0.196\nStream size                      : 1 019 MiB (73%)\nWriting library                  : XviD 1.2.1 (UTC 2008-12-04)\n\nAudio\nID                               : 1\nFormat                           : AC-3\nFormat/Info                      : Audio Coding 3\nMode extension                   : CM (complete main)\nCodec ID                         : 2000\nDuration                         : 1h 57mn\nBit rate mode                    : Constant\nBit rate                         : 448 Kbps\nChannel(s)                       : 6 channels\nChannel positions                : Front: L C R, Side: L R, LFE\nSampling rate                    : 48.0 KHz\nBit depth                        : 16 bits\nVideo delay                      : 1s 280ms\nStream size                      : 377 MiB (27%)\nAlignment                        : Split accross interleaves\nInterleave, duration             : 96 ms (2.40 video frames)\nInterleave, preload duration     : 96 ms\n\nMainly spoken in portuguese. Some dialogues in english and french (portuguese subtitle for these can be found in opensubtitles.org) ","torrent":{"xt":"urn:btih:93f117060521670dc8f6a9e519b5e5e67d016ae0","amp;dn":"Amalia+%282008%29+-+Portuguese+Film","amp;tr":["udp%3A%2F%2Ftracker.openbittorrent.com%3A80","udp%3A%2F%2Fopen.demonii.com%3A1337","udp%3A%2F%2Ftracker.coppersurfer.tk%3A6969","udp%3A%2F%2Fexodus.desync.com%3A6969"],"infoHash":"93f117060521670dc8f6a9e519b5e5e67d016ae0","infoHashBuffer":{"type":"Buffer","data":[147,241,23,6,5,33,103,13,200,246,169,229,25,181,229,230,125,1,106,224]},"announce":[],"urlList":[]}}